ffmpeg started on 2025-06-06 at 20:03:09
Report written to "D:\Convert\FFMetrics\reports\psnr_report-6.txt"
Log level: 32
Command line:
ffmpeg -hide_banner -nostdin -i "G:\\\xc0\xed\xe8\xec\xe5\\\xce\xed\xe3\xee\xe8\xed\xe3\xe8\\!_36_\xce\xf1\xe5\xed\xfc_2024\\DreamCast\\\xd0\xee\xed \xca\xe0\xec\xee\xed\xee\xf5\xe0\xf1\xe8 - \xcd\xe5\xe2\xec\xe5\xed\xff\xe5\xec\xfb\xe9 \xe4\xe5\xf2\xe5\xea\xf2\xe8\xe2\\\xd2\xc2-2\\DC_Kamonohashi_Ron_no_Kindan_Suiri_2nd_Season_13_Telegram_HEVC.mkv" -i "G:\\\xc0\xed\xe8\xec\xe5\\\xce\xed\xe3\xee\xe8\xed\xe3\xe8\\!_36_\xce\xf1\xe5\xed\xfc_2024\\DreamCast\\\xd0\xee\xed \xca\xe0\xec\xee\xed\xee\xf5\xe0\xf1\xe8 - \xcd\xe5\xe2\xec\xe5\xed\xff\xe5\xec\xfb\xe9 \xe4\xe5\xf2\xe5\xea\xf2\xe8\xe2\\\xd2\xc2-2\\DC_Kamonohashi_Ron_no_Kindan_Suiri_2nd_Season_13_Telegram.mp4" -lavfi "[0:v]settb=AVTB,setpts=PTS-STARTPTS,format=pix_fmts=yuv420p10,fps=24000/1001,scale=1920:1080:flags=bicubic[main];[1:v]settb=AVTB,setpts=PTS-STARTPTS,format=pix_fmts=yuv420p,fps=24000/1001,scale=1920:1080:flags=bicubic[ref];[main][ref]psnr=eof_action=endall:stats_file='D\\:/Convert/FFMetrics/logs/psnr_logfile-6.txt'" -f null -
Input #0, matroska,webm, from 'G:\Аниме\Онгоинги\!_36_Осень_2024\DreamCast\Рон Камонохаси - Невменяемый детектив\ТВ-2\DC_Kamonohashi_Ron_no_Kindan_Suiri_2nd_Season_13_Telegram_HEVC.mkv':
  Metadata:
    COMPATIBLE_BRANDS: isomiso2avc1mp41
    MAJOR_BRAND     : isom
    MINOR_VERSION   : 512
    ENCODER         : Lavf61.7.100
  Duration: 00:24:16.73, start: -0.021000, bitrate: 929 kb/s
  Stream #0:0: Video: hevc (Main 10), yuv420p10le(tv, bt709, progressive), 1920x1080 [SAR 1:1 DAR 16:9], 23.98 fps, 23.98 tbr, 1k tbn (default)
      Metadata:
        HANDLER_NAME    : VideoHandler
        VENDOR_ID       : [0][0][0][0]
        ENCODER         : Lavc61.19.100 libx265
        BPS             : 731684
        DURATION        : 00:24:16.621708333
        NUMBER_OF_FRAMES: 34924
        NUMBER_OF_BYTES : 133223435
        _STATISTICS_WRITING_APP: mkvpropedit v66.0.0 ('Josie') 64-bit
        _STATISTICS_WRITING_DATE_UTC: 2025-06-04 08:52:57
        _STATISTICS_TAGS: BPS DURATION NUMBER_OF_FRAMES NUMBER_OF_BYTES
  Stream #0:1: Audio: aac (LC), 48000 Hz, stereo, fltp (default)
      Metadata:
        HANDLER_NAME    : SoundHandler
        VENDOR_ID       : [0][0][0][0]
        ENCODER         : Lavc61.19.100 aac
        BPS             : 193523
        DURATION        : 00:24:16.725000000
        NUMBER_OF_FRAMES: 68285
        NUMBER_OF_BYTES : 35238804
        _STATISTICS_WRITING_APP: mkvpropedit v66.0.0 ('Josie') 64-bit
        _STATISTICS_WRITING_DATE_UTC: 2025-06-04 08:52:57
        _STATISTICS_TAGS: BPS DURATION NUMBER_OF_FRAMES NUMBER_OF_BYTES
Input #1, mov,mp4,m4a,3gp,3g2,mj2, from 'G:\Аниме\Онгоинги\!_36_Осень_2024\DreamCast\Рон Камонохаси - Невменяемый детектив\ТВ-2\DC_Kamonohashi_Ron_no_Kindan_Suiri_2nd_Season_13_Telegram.mp4':
  Metadata:
    major_brand     : isom
    minor_version   : 512
    compatible_brands: isomiso2avc1mp41
    encoder         : Lavf61.1.100
  Duration: 00:24:16.69, start: 0.000000, bitrate: 3327 kb/s
  Stream #1:0[0x1](und): Video: h264 (High) (avc1 / 0x31637661), yuv420p(tv, bt709, progressive), 1920x1080 [SAR 1:1 DAR 16:9], 3179 kb/s, 23.98 fps, 23.98 tbr, 24k tbn (default)
      Metadata:
        handler_name    : VideoHandler
        vendor_id       : [0][0][0][0]
        encoder         : Lavc61.3.100 h264_qsv
  Stream #1:1[0x2](und): Audio: aac (HE-AACv2) (mp4a / 0x6134706D), 48000 Hz, stereo, fltp, 144 kb/s (default)
      Metadata:
        handler_name    : SoundHandler
        vendor_id       : [0][0][0][0]
Stream mapping:
  Stream #0:0 (hevc) -> settb:default
  Stream #1:0 (h264) -> settb:default
  psnr:default -> Stream #0:0 (wrapped_avframe)
  Stream #0:1 -> #0:1 (aac (native) -> pcm_s16le (native))
Output #0, null, to 'pipe:':
  Metadata:
    COMPATIBLE_BRANDS: isomiso2avc1mp41
    MAJOR_BRAND     : isom
    MINOR_VERSION   : 512
    encoder         : Lavf61.7.100
  Stream #0:0: Video: wrapped_avframe, yuv420p10le(tv, bt709, progressive), 1920x1080 [SAR 1:1 DAR 16:9], q=2-31, 200 kb/s, 23.98 fps, 23.98 tbn
      Metadata:
        encoder         : Lavc61.19.100 wrapped_avframe
  Stream #0:1: Audio: pcm_s16le, 48000 Hz, stereo, s16, 1536 kb/s (default)
      Metadata:
        HANDLER_NAME    : SoundHandler
        VENDOR_ID       : [0][0][0][0]
        _STATISTICS_TAGS: BPS DURATION NUMBER_OF_FRAMES NUMBER_OF_BYTES
        BPS             : 193523
        DURATION        : 00:24:16.725000000
        NUMBER_OF_FRAMES: 68285
        NUMBER_OF_BYTES : 35238804
        _STATISTICS_WRITING_APP: mkvpropedit v66.0.0 ('Josie') 64-bit
        _STATISTICS_WRITING_DATE_UTC: 2025-06-04 08:52:57
        encoder         : Lavc61.19.100 pcm_s16le
frame=  175 fps=0.0 q=-0.0 size=N/A time=00:00:07.29 bitrate=N/A speed=  14x    frame=  419 fps=406 q=-0.0 size=N/A time=00:00:17.47 bitrate=N/A speed=16.9x    frame=  657 fps=422 q=-0.0 size=N/A time=00:00:27.40 bitrate=N/A speed=17.6x    frame=  909 fps=437 q=-0.0 size=N/A time=00:00:37.91 bitrate=N/A speed=18.2x    frame= 1160 fps=445 q=-0.0 size=N/A time=00:00:48.38 bitrate=N/A speed=18.6x    frame= 1391 fps=447 q=-0.0 size=N/A time=00:00:58.01 bitrate=N/A speed=18.6x    frame= 1632 fps=450 q=-0.0 size=N/A time=00:01:08.06 bitrate=N/A speed=18.8x    frame= 1879 fps=453 q=-0.0 size=N/A time=00:01:18.36 bitrate=N/A speed=18.9x    frame= 2140 fps=459 q=-0.0 size=N/A time=00:01:29.25 bitrate=N/A speed=19.2x    frame= 2350 fps=455 q=-0.0 size=N/A time=00:01:38.01 bitrate=N/A speed=  19x    frame= 2533 fps=445 q=-0.0 size=N/A time=00:01:45.64 bitrate=N/A speed=18.6x    frame= 2717 fps=438 q=-0.0 size=N/A time=00:01:53.32 bitrate=N/A speed=18.3x    frame= 2935 fps=436 q=-0.0 size=N/A time=00:02:02.41 bitrate=N/A speed=18.2x    frame= 3170 fps=438 q=-0.0 size=N/A time=00:02:12.21 bitrate=N/A speed=18.3x    frame= 3436 fps=443 q=-0.0 size=N/A time=00:02:23.30 bitrate=N/A speed=18.5x    frame= 3700 fps=447 q=-0.0 size=N/A time=00:02:34.32 bitrate=N/A speed=18.7x    frame= 3968 fps=452 q=-0.0 size=N/A time=00:02:45.49 bitrate=N/A speed=18.8x    frame= 4251 fps=457 q=-0.0 size=N/A time=00:02:57.30 bitrate=N/A speed=19.1x    frame= 4526 fps=461 q=-0.0 size=N/A time=00:03:08.77 bitrate=N/A speed=19.2x    frame= 4793 fps=464 q=-0.0 size=N/A time=00:03:19.90 bitrate=N/A speed=19.3x    frame= 5066 fps=467 q=-0.0 size=N/A time=00:03:31.29 bitrate=N/A speed=19.5x    frame= 5325 fps=469 q=-0.0 size=N/A time=00:03:42.09 bitrate=N/A speed=19.6x    frame= 5586 fps=470 q=-0.0 size=N/A time=00:03:52.98 bitrate=N/A speed=19.6x    frame= 5837 fps=471 q=-0.0 size=N/A time=00:04:03.45 bitrate=N/A speed=19.6x    frame= 6090 fps=472 q=-0.0 size=N/A time=00:04:14.00 bitrate=N/A speed=19.7x    frame= 6344 fps=472 q=-0.0 size=N/A time=00:04:24.59 bitrate=N/A speed=19.7x    frame= 6582 fps=472 q=-0.0 size=N/A time=00:04:34.52 bitrate=N/A speed=19.7x    frame= 6851 fps=473 q=-0.0 size=N/A time=00:04:45.74 bitrate=N/A speed=19.7x    frame= 7105 fps=474 q=-0.0 size=N/A time=00:04:56.33 bitrate=N/A speed=19.8x    frame= 7367 fps=475 q=-0.0 size=N/A time=00:05:07.26 bitrate=N/A speed=19.8x    frame= 7637 fps=477 q=-0.0 size=N/A time=00:05:18.52 bitrate=N/A speed=19.9x    frame= 7919 fps=479 q=-0.0 size=N/A time=00:05:30.28 bitrate=N/A speed=  20x    frame= 8213 fps=482 q=-0.0 size=N/A time=00:05:42.55 bitrate=N/A speed=20.1x    frame= 8493 fps=483 q=-0.0 size=N/A time=00:05:54.22 bitrate=N/A speed=20.2x    frame= 8767 fps=485 q=-0.0 size=N/A time=00:06:05.65 bitrate=N/A speed=20.2x    frame= 9031 fps=486 q=-0.0 size=N/A time=00:06:16.66 bitrate=N/A speed=20.3x    frame= 9329 fps=488 q=-0.0 size=N/A time=00:06:29.09 bitrate=N/A speed=20.4x    frame= 9612 fps=490 q=-0.0 size=N/A time=00:06:40.90 bitrate=N/A speed=20.4x    frame= 9902 fps=492 q=-0.0 size=N/A time=00:06:52.99 bitrate=N/A speed=20.5x    frame=10192 fps=493 q=-0.0 size=N/A time=00:07:05.09 bitrate=N/A speed=20.6x    frame=10468 fps=494 q=-0.0 size=N/A time=00:07:16.60 bitrate=N/A speed=20.6x    frame=10758 fps=496 q=-0.0 size=N/A time=00:07:28.69 bitrate=N/A speed=20.7x    frame=11028 fps=497 q=-0.0 size=N/A time=00:07:39.95 bitrate=N/A speed=20.7x    frame=11276 fps=496 q=-0.0 size=N/A time=00:07:50.30 bitrate=N/A speed=20.7x    frame=11541 fps=497 q=-0.0 size=N/A time=00:08:01.35 bitrate=N/A speed=20.7x    frame=11788 fps=496 q=-0.0 size=N/A time=00:08:11.65 bitrate=N/A speed=20.7x    frame=12033 fps=496 q=-0.0 size=N/A time=00:08:21.91 bitrate=N/A speed=20.7x    frame=12324 fps=497 q=-0.0 size=N/A time=00:08:34.01 bitrate=N/A speed=20.7x    frame=12599 fps=498 q=-0.0 size=N/A time=00:08:45.48 bitrate=N/A speed=20.8x    frame=12866 fps=498 q=-0.0 size=N/A time=00:08:56.61 bitrate=N/A speed=20.8x    frame=13160 fps=499 q=-0.0 size=N/A time=00:09:08.88 bitrate=N/A speed=20.8x    frame=13430 fps=500 q=-0.0 size=N/A time=00:09:20.14 bitrate=N/A speed=20.9x    frame=13686 fps=500 q=-0.0 size=N/A time=00:09:30.82 bitrate=N/A speed=20.8x    frame=13893 fps=498 q=-0.0 size=N/A time=00:09:39.45 bitrate=N/A speed=20.8x    frame=14160 fps=498 q=-0.0 size=N/A time=00:09:50.59 bitrate=N/A speed=20.8x    frame=14445 fps=499 q=-0.0 size=N/A time=00:10:02.47 bitrate=N/A speed=20.8x    frame=14718 fps=500 q=-0.0 size=N/A time=00:10:13.86 bitrate=N/A speed=20.8x    frame=14993 fps=500 q=-0.0 size=N/A time=00:10:25.33 bitrate=N/A speed=20.9x    frame=15257 fps=501 q=-0.0 size=N/A time=00:10:36.34 bitrate=N/A speed=20.9x    frame=15519 fps=501 q=-0.0 size=N/A time=00:10:47.27 bitrate=N/A speed=20.9x    frame=15813 fps=502 q=-0.0 size=N/A time=00:10:59.53 bitrate=N/A speed=20.9x    frame=16081 fps=502 q=-0.0 size=N/A time=00:11:10.71 bitrate=N/A speed=20.9x    frame=16339 fps=502 q=-0.0 size=N/A time=00:11:21.47 bitrate=N/A speed=20.9x    frame=16610 fps=503 q=-0.0 size=N/A time=00:11:32.77 bitrate=N/A speed=  21x    frame=16899 fps=503 q=-0.0 size=N/A time=00:11:44.82 bitrate=N/A speed=  21x    frame=17137 fps=503 q=-0.0 size=N/A time=00:11:54.75 bitrate=N/A speed=  21x    frame=17413 fps=503 q=-0.0 size=N/A time=00:12:06.26 bitrate=N/A speed=  21x    frame=17692 fps=504 q=-0.0 size=N/A time=00:12:17.90 bitrate=N/A speed=  21x    frame=17969 fps=504 q=-0.0 size=N/A time=00:12:29.45 bitrate=N/A speed=  21x    frame=18251 fps=505 q=-0.0 size=N/A time=00:12:41.21 bitrate=N/A speed=21.1x    frame=18533 fps=506 q=-0.0 size=N/A time=00:12:52.98 bitrate=N/A speed=21.1x    frame=18814 fps=506 q=-0.0 size=N/A time=00:13:04.70 bitrate=N/A speed=21.1x    frame=19062 fps=506 q=-0.0 size=N/A time=00:13:15.04 bitrate=N/A speed=21.1x    frame=19320 fps=506 q=-0.0 size=N/A time=00:13:25.80 bitrate=N/A speed=21.1x    frame=19618 fps=507 q=-0.0 size=N/A time=00:13:38.23 bitrate=N/A speed=21.1x    frame=19899 fps=507 q=-0.0 size=N/A time=00:13:49.95 bitrate=N/A speed=21.2x    frame=20158 fps=507 q=-0.0 size=N/A time=00:14:00.75 bitrate=N/A speed=21.2x    frame=20443 fps=508 q=-0.0 size=N/A time=00:14:12.64 bitrate=N/A speed=21.2x    frame=20699 fps=508 q=-0.0 size=N/A time=00:14:23.32 bitrate=N/A speed=21.2x    frame=20953 fps=507 q=-0.0 size=N/A time=00:14:33.91 bitrate=N/A speed=21.2x    frame=21228 fps=508 q=-0.0 size=N/A time=00:14:45.38 bitrate=N/A speed=21.2x    frame=21508 fps=508 q=-0.0 size=N/A time=00:14:57.06 bitrate=N/A speed=21.2x    frame=21787 fps=508 q=-0.0 size=N/A time=00:15:08.69 bitrate=N/A speed=21.2x    frame=22069 fps=509 q=-0.0 size=N/A time=00:15:20.46 bitrate=N/A speed=21.2x    frame=22327 fps=509 q=-0.0 size=N/A time=00:15:31.22 bitrate=N/A speed=21.2x    frame=22603 fps=509 q=-0.0 size=N/A time=00:15:42.73 bitrate=N/A speed=21.2x    frame=22886 fps=510 q=-0.0 size=N/A time=00:15:54.53 bitrate=N/A speed=21.3x    frame=23147 fps=510 q=-0.0 size=N/A time=00:16:05.42 bitrate=N/A speed=21.3x    frame=23435 fps=510 q=-0.0 size=N/A time=00:16:17.43 bitrate=N/A speed=21.3x    frame=23692 fps=510 q=-0.0 size=N/A time=00:16:28.15 bitrate=N/A speed=21.3x    frame=23935 fps=510 q=-0.0 size=N/A time=00:16:38.28 bitrate=N/A speed=21.3x    frame=24148 fps=508 q=-0.0 size=N/A time=00:16:47.17 bitrate=N/A speed=21.2x    frame=24404 fps=508 q=-0.0 size=N/A time=00:16:57.85 bitrate=N/A speed=21.2x    frame=24651 fps=508 q=-0.0 size=N/A time=00:17:08.15 bitrate=N/A speed=21.2x    frame=24889 fps=508 q=-0.0 size=N/A time=00:17:18.07 bitrate=N/A speed=21.2x    frame=25123 fps=507 q=-0.0 size=N/A time=00:17:27.83 bitrate=N/A speed=21.1x    frame=25353 fps=506 q=-0.0 size=N/A time=00:17:37.43 bitrate=N/A speed=21.1x    frame=25575 fps=506 q=-0.0 size=N/A time=00:17:46.69 bitrate=N/A speed=21.1x    frame=25817 fps=505 q=-0.0 size=N/A time=00:17:56.78 bitrate=N/A speed=21.1x    frame=26045 fps=505 q=-0.0 size=N/A time=00:18:06.29 bitrate=N/A speed=  21x    frame=26265 fps=504 q=-0.0 size=N/A time=00:18:15.46 bitrate=N/A speed=  21x    frame=26481 fps=503 q=-0.0 size=N/A time=00:18:24.47 bitrate=N/A speed=  21x    frame=26686 fps=502 q=-0.0 size=N/A time=00:18:33.02 bitrate=N/A speed=20.9x    frame=26908 fps=501 q=-0.0 size=N/A time=00:18:42.28 bitrate=N/A speed=20.9x    frame=27151 fps=501 q=-0.0 size=N/A time=00:18:52.42 bitrate=N/A speed=20.9x    frame=27381 fps=500 q=-0.0 size=N/A time=00:19:02.01 bitrate=N/A speed=20.9x    frame=27600 fps=500 q=-0.0 size=N/A time=00:19:11.15 bitrate=N/A speed=20.8x    frame=27828 fps=499 q=-0.0 size=N/A time=00:19:20.65 bitrate=N/A speed=20.8x    frame=28062 fps=499 q=-0.0 size=N/A time=00:19:30.41 bitrate=N/A speed=20.8x    frame=28278 fps=498 q=-0.0 size=N/A time=00:19:39.42 bitrate=N/A speed=20.8x    frame=28523 fps=498 q=-0.0 size=N/A time=00:19:49.64 bitrate=N/A speed=20.8x    frame=28763 fps=497 q=-0.0 size=N/A time=00:19:59.65 bitrate=N/A speed=20.7x    frame=28996 fps=497 q=-0.0 size=N/A time=00:20:09.37 bitrate=N/A speed=20.7x    frame=29205 fps=496 q=-0.0 size=N/A time=00:20:18.09 bitrate=N/A speed=20.7x    frame=29420 fps=496 q=-0.0 size=N/A time=00:20:27.05 bitrate=N/A speed=20.7x    frame=29639 fps=495 q=-0.0 size=N/A time=00:20:36.19 bitrate=N/A speed=20.6x    frame=29849 fps=494 q=-0.0 size=N/A time=00:20:44.95 bitrate=N/A speed=20.6x    frame=30094 fps=494 q=-0.0 size=N/A time=00:20:55.17 bitrate=N/A speed=20.6x    frame=30328 fps=494 q=-0.0 size=N/A time=00:21:04.93 bitrate=N/A speed=20.6x    frame=30564 fps=493 q=-0.0 size=N/A time=00:21:14.77 bitrate=N/A speed=20.6x    frame=30822 fps=493 q=-0.0 size=N/A time=00:21:25.53 bitrate=N/A speed=20.6x    frame=31106 fps=494 q=-0.0 size=N/A time=00:21:37.37 bitrate=N/A speed=20.6x    frame=31366 fps=494 q=-0.0 size=N/A time=00:21:48.22 bitrate=N/A speed=20.6x    frame=31595 fps=494 q=-0.0 size=N/A time=00:21:57.77 bitrate=N/A speed=20.6x    frame=31843 fps=494 q=-0.0 size=N/A time=00:22:08.11 bitrate=N/A speed=20.6x    frame=32122 fps=494 q=-0.0 size=N/A time=00:22:19.75 bitrate=N/A speed=20.6x    frame=32375 fps=494 q=-0.0 size=N/A time=00:22:30.30 bitrate=N/A speed=20.6x    frame=32652 fps=494 q=-0.0 size=N/A time=00:22:41.86 bitrate=N/A speed=20.6x    frame=32934 fps=495 q=-0.0 size=N/A time=00:22:53.62 bitrate=N/A speed=20.6x    frame=33197 fps=495 q=-0.0 size=N/A time=00:23:04.59 bitrate=N/A speed=20.6x    frame=33453 fps=495 q=-0.0 size=N/A time=00:23:15.26 bitrate=N/A speed=20.6x    frame=33711 fps=495 q=-0.0 size=N/A time=00:23:26.02 bitrate=N/A speed=20.6x    frame=33937 fps=494 q=-0.0 size=N/A time=00:23:35.45 bitrate=N/A speed=20.6x    frame=34179 fps=494 q=-0.0 size=N/A time=00:23:45.54 bitrate=N/A speed=20.6x    frame=34430 fps=494 q=-0.0 size=N/A time=00:23:56.01 bitrate=N/A speed=20.6x    frame=34682 fps=494 q=-0.0 size=N/A time=00:24:06.52 bitrate=N/A speed=20.6x    frame=34912 fps=494 q=-0.0 size=N/A time=00:24:16.12 bitrate=N/A speed=20.6x    [Parsed_psnr_10 @ 000001da654b7640] PSNR y:49.970137 u:50.666747 v:51.202182 average:50.266045 min:42.767742 max:inf
[out#0/null @ 000001da63655980] video:15006KiB audio:273140KiB subtitle:0KiB other streams:0KiB global headers:0KiB muxing overhead: unknown
frame=34924 fps=494 q=-0.0 Lsize=N/A time=00:24:16.62 bitrate=N/A speed=20.6x    
